<?xml version="1.0" encoding="UTF-8"?>
<svg width="409px" height="503px" viewBox="0 0 409 503" version="1.1" xmlns="http://www.w3.org/2000/svg" xmlns:xlink="http://www.w3.org/1999/xlink">
    <!-- Generator: Sketch 50.2 (55047) - http://www.bohemiancoding.com/sketch -->
    <title>Tablet</title>
    <desc>Created with Sketch.</desc>
    <defs></defs>
    <g id="Tablet" stroke="none" stroke-width="1" fill="none" fill-rule="evenodd">
        <rect id="Rectangle-Copy-4" stroke="#6CB2EB" stroke-width="5" fill="#FFFFFF" x="22.5" y="18.5" width="364" height="466" rx="8"></rect>
        <g id="Screen" transform="translate(25.000000, 31.000000)" fill="#EFF8FF" stroke="#6CB2EB" stroke-width="2">
            <rect id="Rectangle-2-Copy" x="-1" y="-1" width="361" height="412"></rect>
        </g>
        <text id="Patient-Consent" font-family="Roboto-Bold, Roboto" font-size="18" font-weight="bold" fill="#4A4A4A">
            <tspan x="41" y="66">Patient Consent</tspan>
        </text>
        <path d="M39.5,76.5 L369.506061,76.5" id="Line-Copy-19" stroke="#979797" stroke-width="2" stroke-linecap="square"></path>
        <rect id="Rectangle-2-Copy-16" fill="#FFFFFF" x="56" y="96" width="259" height="82" rx="4"></rect>
        <rect id="Rectangle-2-Copy-17" fill="#FFFFFF" x="56" y="188" width="259" height="82" rx="4"></rect>
        <rect id="Rectangle-2-Copy-18" fill="#FFFFFF" x="56" y="280" width="259" height="82" rx="4"></rect>
        <g id="Group-3" transform="translate(67.000000, 113.000000)" stroke="#6CB2EB" stroke-linecap="square">
            <path d="M10.8278358,2.88 L124.723529,2.88" id="Line-Copy-14" stroke-width="9"></path>
            <path d="M9.2235851,25.92 L228.204671,25.92" id="Line-Copy-15" stroke-width="5"></path>
            <path d="M9.2235851,16.32 L228.204671,16.32" id="Line-Copy-18" stroke-width="5"></path>
            <path d="M9.2235851,35.52 L228.204671,35.52" id="Line-Copy-16" stroke-width="5"></path>
            <path d="M9.2235851,45.12 L138.429412,45.12" id="Line-Copy-17" stroke-width="5"></path>
        </g>
        <g id="Group-3-Copy" transform="translate(67.000000, 205.000000)" stroke="#6CB2EB" stroke-linecap="square">
            <path d="M10.8278358,2.88 L124.723529,2.88" id="Line-Copy-14" stroke-width="9"></path>
            <path d="M9.2235851,25.92 L228.204671,25.92" id="Line-Copy-15" stroke-width="5"></path>
            <path d="M9.2235851,16.32 L228.204671,16.32" id="Line-Copy-18" stroke-width="5"></path>
            <path d="M9.2235851,35.52 L228.204671,35.52" id="Line-Copy-16" stroke-width="5"></path>
            <path d="M9.2235851,45.12 L138.429412,45.12" id="Line-Copy-17" stroke-width="5"></path>
        </g>
        <g id="Group-3-Copy-2" transform="translate(67.000000, 297.000000)" stroke="#6CB2EB" stroke-linecap="square">
            <path d="M10.8278358,2.88 L124.723529,2.88" id="Line-Copy-14" stroke-width="9"></path>
            <path d="M9.2235851,25.92 L228.204671,25.92" id="Line-Copy-15" stroke-width="5"></path>
            <path d="M9.2235851,16.32 L228.204671,16.32" id="Line-Copy-18" stroke-width="5"></path>
            <path d="M9.2235851,35.52 L228.204671,35.52" id="Line-Copy-16" stroke-width="5"></path>
            <path d="M9.2235851,45.12 L138.429412,45.12" id="Line-Copy-17" stroke-width="5"></path>
        </g>
        <g id="Group" transform="translate(331.000000, 153.000000)">
            <rect id="Rectangle-Copy-6" stroke="#BCDEFA" stroke-width="2" fill="#FFFFFF" x="-1" y="1" width="25" height="25" rx="4"></rect>
            <g id="Group-2-Copy-3" transform="translate(11.606602, 10.606602) rotate(135.000000) translate(-11.606602, -10.606602) translate(2.606602, 4.606602)" fill="#51D88A">
                <rect id="Rectangle-2-Copy-19" x="1.70530257e-13" y="2.27373675e-13" width="17.7256712" height="3.50532584" rx="1.75266292"></rect>
                <rect id="Rectangle-2-Copy-20" transform="translate(15.973008, 5.576655) rotate(90.000000) translate(-15.973008, -5.576655) " x="10.3963535" y="3.82399183" width="11.1533095" height="3.50532584" rx="1.75266292"></rect>
            </g>
        </g>
        <g id="Group-Copy" transform="translate(331.000000, 245.000000)">
            <rect id="Rectangle-Copy-6" stroke="#BCDEFA" stroke-width="2" fill="#FFFFFF" x="-1" y="1" width="25" height="25" rx="4"></rect>
            <g id="Group-2-Copy-3" transform="translate(11.606602, 10.606602) rotate(135.000000) translate(-11.606602, -10.606602) translate(2.606602, 4.606602)" fill="#51D88A">
                <rect id="Rectangle-2-Copy-19" x="1.70530257e-13" y="2.27373675e-13" width="17.7256712" height="3.50532584" rx="1.75266292"></rect>
                <rect id="Rectangle-2-Copy-20" transform="translate(15.973008, 5.576655) rotate(90.000000) translate(-15.973008, -5.576655) " x="10.3963535" y="3.82399183" width="11.1533095" height="3.50532584" rx="1.75266292"></rect>
            </g>
        </g>
        <g id="Group-Copy-2" transform="translate(331.000000, 337.000000)">
            <rect id="Rectangle-Copy-6" stroke="#BCDEFA" stroke-width="2" fill="#FFFFFF" x="-1" y="1" width="25" height="25" rx="4"></rect>
            <g id="Group-2-Copy-3" transform="translate(11.606602, 10.606602) rotate(135.000000) translate(-11.606602, -10.606602) translate(2.606602, 4.606602)" fill="#51D88A">
                <rect id="Rectangle-2-Copy-19" x="1.70530257e-13" y="2.27373675e-13" width="17.7256712" height="3.50532584" rx="1.75266292"></rect>
                <rect id="Rectangle-2-Copy-20" transform="translate(15.973008, 5.576655) rotate(90.000000) translate(-15.973008, -5.576655) " x="10.3963535" y="3.82399183" width="11.1533095" height="3.50532584" rx="1.75266292"></rect>
            </g>
        </g>
        <rect id="Rectangle-Copy-6" fill="#FAAD63" x="228" y="377" width="87" height="38" rx="4"></rect>
        <text id="SUBMIT" font-family="Roboto-Bold, Roboto" font-size="18" font-weight="bold" fill="#FFFFFF">
            <tspan x="238.352051" y="400">SUBMIT</tspan>
        </text>
        <g id="Group-Copy-3" transform="translate(55.000000, 377.000000)">
            <rect id="Rectangle-Copy-6" stroke="#BCDEFA" stroke-width="2" fill="#FFFFFF" x="-1" y="-1" width="160" height="40" rx="4"></rect>
            <text id="07_-_-_-_-_-_-_-_-_" font-family="Roboto-Light, Roboto" font-size="18" font-weight="300" fill="#4A4A4A">
                <tspan x="16.5537109" y="22">07_ _ _ _ _ _ _ _ _</tspan>
            </text>
        </g>
        <g id="Device-button" transform="translate(193.000000, 451.000000)" stroke="#6CB2EB" stroke-width="2">
            <rect id="Rectangle-Copy-9" x="-1" y="-1" width="26" height="24" rx="8"></rect>
        </g>
    </g>
</svg>